{
	"asset":{
		"version":"2.0",
		"generator":"Created using the official Cinema 4D glTF Exporter 1.000x284978"
	},
	"scenes":[{
		"nodes":[0]
	}],
	"nodes":[{
		"name":"胡须.1",
		"translation":[-9.469488143920899,
		592.7291259765625,
		-160.95751953125],
		"rotation":[0.10001887381076813,
		0.11810361593961716,
		-0.018443899229168893,
		-0.9877791404724121],
		"scale":[1.0,
		1.0,
		1.0],
		"children":[1,
		2,
		3,
		4,
		5,
		6,
		7,
		8,
		9,
		10,
		11,
		12]
	},
	{
		"name":"胡须.1",
		"mesh":0
	},
	{
		"name":"胡须.1-材质.1",
		"mesh":1
	},
	{
		"name":"胡须.1-材质.1",
		"mesh":2
	},
	{
		"name":"胡须.1-材质",
		"mesh":3
	},
	{
		"name":"胡须.1-材质.6",
		"mesh":4
	},
	{
		"name":"胡须.1-材质",
		"mesh":5
	},
	{
		"name":"胡须.1-材质.2",
		"mesh":6
	},
	{
		"name":"胡须.1-材质.3",
		"mesh":7
	},
	{
		"name":"胡须.1-材质.4",
		"mesh":8
	},
	{
		"name":"胡须.1-材质.5",
		"mesh":9
	},
	{
		"name":"胡须.1-材质.1",
		"mesh":10
	},
	{
		"name":"胡须.1-材质",
		"mesh":11
	}],
	"buffers":[{
		"uri":"data:application/octet-stream;base64,",
		"byteLength":38240
	},
	{
		"uri":"data:application/octet-stream;base64,",
		"byteLength":15712
	},
	{
		"uri":"data:application/octet-stream;base64,",
		"byteLength":59264
	},
	{
		"uri":"data:application/octet-stream;base64,",
		"byteLength":240192
	},
	{
		"uri":"data:application/octet-stream;base64,",
		"byteLength":32640
	},
	{
		"uri":"data:application/octet-stream;base64,",
		"byteLength":429844
	},
	{
		"uri":"data:application/octet-stream;base64,",
		"byteLength":20292
	},
	{
		"uri":"data:application/octet-stream;base64,",
		"byteLength":3336
	},
	{
		"uri":"data:application/octet-stream;base64,",
		"byteLength":105856
	},
	{
		"uri":"data:application/octet-stream;base64,",
		"byteLength":61760
	},
	{
		"uri":"data:application/octet-stream;base64,",
		"byteLength":846364
	},
	{
		"uri":"data:application/octet-stream;base64,",
		"byteLength":804284
	}],
	"meshes":[{
		"name":"胡须.1",
		"primitives":[{
			"attributes":{
				"POSITION":1,
				"NORMAL":2,
				"TEXCOORD_0":3
			},
			"indices":0
		}]
	},
	{
		"name":"胡须.1-材质.1",
		"primitives":[{
			"material":0,
			"attributes":{
				"POSITION":5,
				"NORMAL":6,
				"TEXCOORD_0":7
			},
			"indices":4
		}]
	},
	{
		"name":"胡须.1-材质.1",
		"primitives":[{
			"material":0,
			"attributes":{
				"POSITION":9,
				"NORMAL":10,
				"TEXCOORD_0":11
			},
			"indices":8
		}]
	},
	{
		"name":"胡须.1-材质",
		"primitives":[{
			"material":1,
			"attributes":{
				"POSITION":13,
				"NORMAL":14,
				"TEXCOORD_0":15
			},
			"indices":12
		}]
	},
	{
		"name":"胡须.1-材质.6",
		"primitives":[{
			"material":2,
			"attributes":{
				"POSITION":17,
				"NORMAL":18,
				"TEXCOORD_0":19
			},
			"indices":16
		}]
	},
	{
		"name":"胡须.1-材质",
		"primitives":[{
			"material":1,
			"attributes":{
				"POSITION":21,
				"NORMAL":22,
				"TEXCOORD_0":23
			},
			"indices":20
		}]
	},
	{
		"name":"胡须.1-材质.2",
		"primitives":[{
			"material":3,
			"attributes":{
				"POSITION":25,
				"NORMAL":26,
				"TEXCOORD_0":27
			},
			"indices":24
		}]
	},
	{
		"name":"胡须.1-材质.3",
		"primitives":[{
			"material":4,
			"attributes":{
				"POSITION":29,
				"NORMAL":30,
				"TEXCOORD_0":31
			},
			"indices":28
		}]
	},
	{
		"name":"胡须.1-材质.4",
		"primitives":[{
			"material":5,
			"attributes":{
				"POSITION":33,
				"NORMAL":34,
				"TEXCOORD_0":35
			},
			"indices":32
		}]
	},
	{
		"name":"胡须.1-材质.5",
		"primitives":[{
			"material":6,
			"attributes":{
				"POSITION":37,
				"NORMAL":38,
				"TEXCOORD_0":39
			},
			"indices":36
		}]
	},
	{
		"name":"胡须.1-材质.1",
		"primitives":[{
			"material":7,
			"attributes":{
				"POSITION":41,
				"NORMAL":42,
				"TEXCOORD_0":43
			},
			"indices":40
		}]
	},
	{
		"name":"胡须.1-材质",
		"primitives":[{
			"material":1,
			"attributes":{
				"POSITION":45,
				"NORMAL":46,
				"TEXCOORD_0":47
			},
			"indices":44
		}]
	}],
	"accessors":[{
		"bufferView":0,
		"type":"SCALAR",
		"componentType":5123,
		"count":1872,
		"byteOffset":0,
		"min":[0],
		"max":[1077]
	},
	{
		"bufferView":1,
		"type":"VEC3",
		"componentType":5126,
		"count":1078,
		"byteOffset":0,
		"min":[-151.1865997314453,
		36.765132904052737,
		-123.41387939453125],
		"max":[179.40748596191407,
		191.2122039794922,
		126.85015106201172]
	},
	{
		"bufferView":1,
		"type":"VEC3",
		"componentType":5126,
		"count":1078,
		"byteOffset":12,
		"min":[-0.9980000257492065,
		-0.9408438205718994,
		-0.9999688267707825],
		"max":[0.9117813110351563,
		0.999125063419342,
		0.09390625357627869]
	},
	{
		"bufferView":1,
		"type":"VEC2",
		"componentType":5126,
		"count":1078,
		"byteOffset":24,
		"min":[0.0,
		0.0],
		"max":[1.0042610168457032,
		1.0006654262542725]
	},
	{
		"bufferView":2,
		"type":"SCALAR",
		"componentType":5123,
		"count":1536,
		"byteOffset":0,
		"min":[0],
		"max":[394]
	},
	{
		"bufferView":3,
		"type":"VEC3",
		"componentType":5126,
		"count":395,
		"byteOffset":0,
		"min":[-185.20555114746095,
		-603.172607421875,
		-34.15269088745117],
		"max":[222.02108764648438,
		-485.2817077636719,
		181.05372619628907]
	},
	{
		"bufferView":3,
		"type":"VEC3",
		"componentType":5126,
		"count":395,
		"byteOffset":12,
		"min":[-0.9994062781333923,
		-0.9955313205718994,
		-0.9946563243865967],
		"max":[0.9967188239097595,
		0.2601250112056732,
		0.9863125681877136]
	},
	{
		"bufferView":3,
		"type":"VEC2",
		"componentType":5126,
		"count":395,
		"byteOffset":24,
		"min":[0.0,
		0.0],
		"max":[1.0,
		1.0]
	},
	{
		"bufferView":4,
		"type":"SCALAR",
		"componentType":5123,
		"count":7008,
		"byteOffset":0,
		"min":[0],
		"max":[1413]
	},
	{
		"bufferView":5,
		"type":"VEC3",
		"componentType":5126,
		"count":1414,
		"byteOffset":0,
		"min":[-172.80421447753907,
		224.9775848388672,
		-135.122802734375],
		"max":[188.6089324951172,
		429.4366760253906,
		25.33390998840332]
	},
	{
		"bufferView":5,
		"type":"VEC3",
		"componentType":5126,
		"count":1414,
		"byteOffset":12,
		"min":[-0.9980625510215759,
		-0.9965000748634338,
		-0.9995312690734863],
		"max":[0.999750018119812,
		0.9986875653266907,
		0.9965000748634338]
	},
	{
		"bufferView":5,
		"type":"VEC2",
		"componentType":5126,
		"count":1414,
		"byteOffset":24,
		"min":[0.0,
		0.0],
		"max":[1.0,
		1.0]
	},
	{
		"bufferView":6,
		"type":"SCALAR",
		"componentType":5123,
		"count":32256,
		"byteOffset":0,
		"min":[0],
		"max":[5489]
	},
	{
		"bufferView":7,
		"type":"VEC3",
		"componentType":5126,
		"count":5490,
		"byteOffset":0,
		"min":[-269.53424072265627,
		-225.22613525390626,
		165.9463653564453],
		"max":[484.3465576171875,
		-5.758299350738525,
		505.8185119628906]
	},
	{
		"bufferView":7,
		"type":"VEC3",
		"componentType":5126,
		"count":5490,
		"byteOffset":12,
		"min":[-0.9982500672340393,
		-0.9997813105583191,
		-0.9997813105583191],
		"max":[0.9987813234329224,
		0.9926875233650208,
		0.9993125200271606]
	},
	{
		"bufferView":7,
		"type":"VEC2",
		"componentType":5126,
		"count":5490,
		"byteOffset":24,
		"min":[0.0,
		0.0],
		"max":[0.0,
		0.0]
	},
	{
		"bufferView":8,
		"type":"SCALAR",
		"componentType":5123,
		"count":3648,
		"byteOffset":0,
		"min":[0],
		"max":[791]
	},
	{
		"bufferView":9,
		"type":"VEC3",
		"componentType":5126,
		"count":792,
		"byteOffset":0,
		"min":[-185.34945678710938,
		-277.1161193847656,
		-11.125499725341797],
		"max":[222.67776489257813,
		10.028606414794922,
		267.8616027832031]
	},
	{
		"bufferView":9,
		"type":"VEC3",
		"componentType":5126,
		"count":792,
		"byteOffset":12,
		"min":[-0.9941250681877136,
		-0.9975938200950623,
		-0.9985625743865967],
		"max":[0.9953125715255737,
		0.990531325340271,
		0.9999688267707825]
	},
	{
		"bufferView":9,
		"type":"VEC2",
		"componentType":5126,
		"count":792,
		"byteOffset":24,
		"min":[0.0,
		0.0],
		"max":[1.0,
		1.0]
	},
	{
		"bufferView":10,
		"type":"SCALAR",
		"componentType":5123,
		"count":14442,
		"byteOffset":0,
		"min":[0],
		"max":[12529]
	},
	{
		"bufferView":11,
		"type":"VEC3",
		"componentType":5126,
		"count":12530,
		"byteOffset":0,
		"min":[-351.2520446777344,
		-46.95222091674805,
		-130.5476837158203],
		"max":[475.8277587890625,
		620.6392822265625,
		554.4727783203125]
	},
	{
		"bufferView":11,
		"type":"VEC3",
		"componentType":5126,
		"count":12530,
		"byteOffset":12,
		"min":[-0.9958750605583191,
		-0.9995625615119934,
		-0.9986875653266907],
		"max":[0.9993125200271606,
		0.9998750686645508,
		0.9998750686645508]
	},
	{
		"bufferView":11,
		"type":"VEC2",
		"componentType":5126,
		"count":12530,
		"byteOffset":24,
		"min":[0.0,
		0.0],
		"max":[1.0,
		1.0]
	},
	{
		"bufferView":12,
		"type":"SCALAR",
		"componentType":5123,
		"count":786,
		"byteOffset":0,
		"min":[0],
		"max":[584]
	},
	{
		"bufferView":13,
		"type":"VEC3",
		"componentType":5126,
		"count":585,
		"byteOffset":0,
		"min":[-92.58411407470703,
		98.72402954101563,
		-122.22132873535156],
		"max":[76.83966064453125,
		190.028076171875,
		9.946846008300782]
	},
	{
		"bufferView":13,
		"type":"VEC3",
		"componentType":5126,
		"count":585,
		"byteOffset":12,
		"min":[-0.9878438115119934,
		-0.9792500734329224,
		-0.9727187752723694],
		"max":[0.9729688167572022,
		0.9997813105583191,
		0.3058125078678131]
	},
	{
		"bufferView":13,
		"type":"VEC2",
		"componentType":5126,
		"count":585,
		"byteOffset":24,
		"min":[0.4912051856517792,
		0.016074925661087037],
		"max":[1.0099999904632569,
		0.9967823028564453]
	},
	{
		"bufferView":14,
		"type":"SCALAR",
		"componentType":5123,
		"count":372,
		"byteOffset":0,
		"min":[0],
		"max":[80]
	},
	{
		"bufferView":15,
		"type":"VEC3",
		"componentType":5126,
		"count":81,
		"byteOffset":0,
		"min":[-114.9168930053711,
		90.52444458007813,
		-83.60043334960938],
		"max":[97.80011749267578,
		151.2980194091797,
		-1.5048067569732667]
	},
	{
		"bufferView":15,
		"type":"VEC3",
		"componentType":5126,
		"count":81,
		"byteOffset":12,
		"min":[-0.43934378027915957,
		0.043562501668930057,
		-0.9877188205718994],
		"max":[0.13378125429153443,
		0.9852188229560852,
		-0.06937500089406967]
	},
	{
		"bufferView":15,
		"type":"VEC2",
		"componentType":5126,
		"count":81,
		"byteOffset":24,
		"min":[0.1458333134651184,
		0.1666666567325592],
		"max":[0.3541666269302368,
		0.5]
	},
	{
		"bufferView":16,
		"type":"SCALAR",
		"componentType":5123,
		"count":3264,
		"byteOffset":0,
		"min":[0],
		"max":[3103]
	},
	{
		"bufferView":17,
		"type":"VEC3",
		"componentType":5126,
		"count":3104,
		"byteOffset":0,
		"min":[-163.57765197753907,
		501.1580505371094,
		187.8041229248047],
		"max":[362.9894714355469,
		825.6695556640625,
		506.5341796875]
	},
	{
		"bufferView":17,
		"type":"VEC3",
		"componentType":5126,
		"count":3104,
		"byteOffset":12,
		"min":[-0.9986875653266907,
		-0.9469375610351563,
		-0.9881563186645508],
		"max":[0.9962813258171082,
		0.9971563220024109,
		0.9922813177108765]
	},
	{
		"bufferView":17,
		"type":"VEC2",
		"componentType":5126,
		"count":3104,
		"byteOffset":24,
		"min":[0.0,
		0.0],
		"max":[1.0,
		1.0]
	},
	{
		"bufferView":18,
		"type":"SCALAR",
		"componentType":5123,
		"count":6720,
		"byteOffset":0,
		"min":[0],
		"max":[1509]
	},
	{
		"bufferView":19,
		"type":"VEC3",
		"componentType":5126,
		"count":1510,
		"byteOffset":0,
		"min":[-208.9499053955078,
		-53.01976013183594,
		-84.07434844970703],
		"max":[318.9394836425781,
		669.6090087890625,
		411.5252380371094]
	},
	{
		"bufferView":19,
		"type":"VEC3",
		"componentType":5126,
		"count":1510,
		"byteOffset":12,
		"min":[-0.9976875185966492,
		-0.9917187690734863,
		-0.9950000643730164],
		"max":[0.9976875185966492,
		0.9917187690734863,
		0.9950000643730164]
	},
	{
		"bufferView":19,
		"type":"VEC2",
		"componentType":5126,
		"count":1510,
		"byteOffset":24,
		"min":[0.0,
		0.0],
		"max":[1.0,
		1.0]
	},
	{
		"bufferView":20,
		"type":"SCALAR",
		"componentType":5123,
		"count":28077,
		"byteOffset":0,
		"min":[0],
		"max":[24693]
	},
	{
		"bufferView":21,
		"type":"VEC3",
		"componentType":5126,
		"count":24694,
		"byteOffset":0,
		"min":[-260.1478576660156,
		-163.09112548828126,
		-93.94810485839844],
		"max":[445.6688232421875,
		661.1502075195313,
		713.4502563476563]
	},
	{
		"bufferView":21,
		"type":"VEC3",
		"componentType":5126,
		"count":24694,
		"byteOffset":12,
		"min":[-0.9998750686645508,
		-0.9987813234329224,
		-0.9998437762260437],
		"max":[0.9994062781333923,
		0.9996563196182251,
		0.9993438124656677]
	},
	{
		"bufferView":21,
		"type":"VEC2",
		"componentType":5126,
		"count":24694,
		"byteOffset":24,
		"min":[0.0,
		0.0],
		"max":[1.0,
		1.0]
	},
	{
		"bufferView":22,
		"type":"SCALAR",
		"componentType":5123,
		"count":65406,
		"byteOffset":0,
		"min":[0],
		"max":[21045]
	},
	{
		"bufferView":23,
		"type":"VEC3",
		"componentType":5126,
		"count":21046,
		"byteOffset":0,
		"min":[-283.6391906738281,
		-520.9053344726563,
		-239.28973388671876],
		"max":[462.4198303222656,
		559.1553955078125,
		566.53173828125]
	},
	{
		"bufferView":23,
		"type":"VEC3",
		"componentType":5126,
		"count":21046,
		"byteOffset":12,
		"min":[-0.9997813105583191,
		-0.9998750686645508,
		-0.9998750686645508],
		"max":[0.9997813105583191,
		0.9998750686645508,
		0.9998750686645508]
	},
	{
		"bufferView":23,
		"type":"VEC2",
		"componentType":5126,
		"count":21046,
		"byteOffset":24,
		"min":[0.0,
		0.0],
		"max":[1.0,
		1.0]
	}],
	"bufferViews":[{
		"buffer":0,
		"byteOffset":0,
		"byteLength":3744,
		"target":34963
	},
	{
		"buffer":0,
		"byteOffset":3744,
		"byteLength":34496,
		"target":34962,
		"byteStride":32
	},
	{
		"buffer":1,
		"byteOffset":0,
		"byteLength":3072,
		"target":34963
	},
	{
		"buffer":1,
		"byteOffset":3072,
		"byteLength":12640,
		"target":34962,
		"byteStride":32
	},
	{
		"buffer":2,
		"byteOffset":0,
		"byteLength":14016,
		"target":34963
	},
	{
		"buffer":2,
		"byteOffset":14016,
		"byteLength":45248,
		"target":34962,
		"byteStride":32
	},
	{
		"buffer":3,
		"byteOffset":0,
		"byteLength":64512,
		"target":34963
	},
	{
		"buffer":3,
		"byteOffset":64512,
		"byteLength":175680,
		"target":34962,
		"byteStride":32
	},
	{
		"buffer":4,
		"byteOffset":0,
		"byteLength":7296,
		"target":34963
	},
	{
		"buffer":4,
		"byteOffset":7296,
		"byteLength":25344,
		"target":34962,
		"byteStride":32
	},
	{
		"buffer":5,
		"byteOffset":0,
		"byteLength":28884,
		"target":34963
	},
	{
		"buffer":5,
		"byteOffset":28884,
		"byteLength":400960,
		"target":34962,
		"byteStride":32
	},
	{
		"buffer":6,
		"byteOffset":0,
		"byteLength":1572,
		"target":34963
	},
	{
		"buffer":6,
		"byteOffset":1572,
		"byteLength":18720,
		"target":34962,
		"byteStride":32
	},
	{
		"buffer":7,
		"byteOffset":0,
		"byteLength":744,
		"target":34963
	},
	{
		"buffer":7,
		"byteOffset":744,
		"byteLength":2592,
		"target":34962,
		"byteStride":32
	},
	{
		"buffer":8,
		"byteOffset":0,
		"byteLength":6528,
		"target":34963
	},
	{
		"buffer":8,
		"byteOffset":6528,
		"byteLength":99328,
		"target":34962,
		"byteStride":32
	},
	{
		"buffer":9,
		"byteOffset":0,
		"byteLength":13440,
		"target":34963
	},
	{
		"buffer":9,
		"byteOffset":13440,
		"byteLength":48320,
		"target":34962,
		"byteStride":32
	},
	{
		"buffer":10,
		"byteOffset":0,
		"byteLength":56154,
		"target":34963
	},
	{
		"buffer":10,
		"byteOffset":56156,
		"byteLength":790208,
		"target":34962,
		"byteStride":32
	},
	{
		"buffer":11,
		"byteOffset":0,
		"byteLength":130812,
		"target":34963
	},
	{
		"buffer":11,
		"byteOffset":130812,
		"byteLength":673472,
		"target":34962,
		"byteStride":32
	}],
	"materials":[{
		"pbrMetallicRoughness":{
			"baseColorFactor":[0.10196078568696976,
			0.05490196123719216,
			0.05098039284348488,
			1.0],
			"metallicFactor":0.0,
			"roughnessFactor":0.5
		},
		"emissiveFactor":[0.0,
		0.0,
		0.0],
		"alphaMode":"OPAQUE",
		"doubleSided":false,
		"name":"材质.1"
	},
	{
		"pbrMetallicRoughness":{
			"baseColorFactor":[0.87,
			0.87,
			0.87,
			1.0],
			"metallicFactor":0.0,
			"roughnessFactor":0.5
		},
		"emissiveFactor":[0.0,
		0.0,
		0.0],
		"alphaMode":"OPAQUE",
		"doubleSided":false,
		"name":"材质"
	},
	{
		"pbrMetallicRoughness":{
			"baseColorFactor":[1.0,
			0.4588235318660736,
			0.16470588743686677,
			1.0],
			"metallicFactor":0.0,
			"roughnessFactor":0.5
		},
		"emissiveFactor":[0.0,
		0.0,
		0.0],
		"alphaMode":"OPAQUE",
		"doubleSided":false,
		"name":"材质.6"
	},
	{
		"pbrMetallicRoughness":{
			"baseColorFactor":[0.7176470756530762,
			0.2235294133424759,
			0.2509804069995879,
			1.0],
			"metallicFactor":0.0,
			"roughnessFactor":0.5
		},
		"emissiveFactor":[0.0,
		0.0,
		0.0],
		"alphaMode":"OPAQUE",
		"doubleSided":false,
		"name":"材质.2"
	},
	{
		"pbrMetallicRoughness":{
			"baseColorFactor":[0.9098039269447327,
			0.3058823645114898,
			0.3137255012989041,
			1.0],
			"metallicFactor":0.0,
			"roughnessFactor":0.5
		},
		"emissiveFactor":[0.0,
		0.0,
		0.0],
		"alphaMode":"OPAQUE",
		"doubleSided":false,
		"name":"材质.3"
	},
	{
		"pbrMetallicRoughness":{
			"baseColorFactor":[0.78,
			0.78,
			0.78,
			1.0],
			"metallicFactor":0.0,
			"roughnessFactor":0.5
		},
		"emissiveFactor":[0.0,
		0.0,
		0.0],
		"alphaMode":"OPAQUE",
		"doubleSided":false,
		"name":"材质.4"
	},
	{
		"pbrMetallicRoughness":{
			"baseColorFactor":[0.13333334028720857,
			0.3450980484485628,
			0.8117647171020508,
			1.0],
			"metallicFactor":0.0,
			"roughnessFactor":0.5
		},
		"emissiveFactor":[0.0,
		0.0,
		0.0],
		"alphaMode":"OPAQUE",
		"doubleSided":false,
		"name":"材质.5"
	},
	{
		"pbrMetallicRoughness":{
			"baseColorFactor":[0.3529411852359772,
			0.26274511218070986,
			0.26274511218070986,
			1.0],
			"metallicFactor":0.0,
			"roughnessFactor":0.5
		},
		"emissiveFactor":[0.0,
		0.0,
		0.0],
		"alphaMode":"OPAQUE",
		"doubleSided":false,
		"name":"材质.1"
	}]
}